Coordinates
version=1
nRows=8
nColumns=36
inDegrees=yes

Units are S.I. units (second, meters, Newtons, ...)
If the header above contains a line with 'inDegrees', this indicates whether rotational values are in degrees (yes) or radians (no).

endheader
time	pelvis_tilt	pelvis_list	pelvis_rotation	pelvis_tx	pelvis_ty	pelvis_tz	hip_flexion_r	hip_adduction_r	hip_rotation_r	knee_angle_r	knee_angle_r_beta	ankle_angle_r	subtalar_angle_r	mtp_angle_r	hip_flexion_l	hip_adduction_l	hip_rotation_l	knee_angle_l	knee_angle_l_beta	ankle_angle_l	subtalar_angle_l	mtp_angle_l	lumbar_extension	lumbar_bending	lumbar_rotation	arm_flex_r	arm_add_r	arm_rot_r	elbow_flex_r	pro_sup_r	arm_flex_l	arm_add_l	arm_rot_l	elbow_flex_l	pro_sup_l
      0.99583330	    -14.33693624	     -0.22765384	      1.31618852	      0.04201739	      0.69522026	     -0.07370615	     72.50845789	    -10.01036436	     -1.96228178	     76.28489104	      1.33142252	     17.77473085	      0.65129830	     -7.49999917	     74.70233644	     -7.91561345	      0.75652691	     71.64558446	      1.25045134	      7.06431960	     -8.14637669	     -7.49999917	    -24.00020247	      0.52600702	      0.22525023	     54.81829448	    -16.24050183	     34.47049737	    107.97145717	     92.72591648	     47.82118061	     -3.03381329	     25.03026389	    110.50661601	     75.57412619
      1.00000000	    -14.23301095	     -0.30890706	      1.57977561	      0.04980261	      0.68628080	     -0.07488724	     73.26750225	    -10.20251006	     -1.62062276	     78.17591792	      1.36442716	     18.76701841	      0.63785049	     -7.49999917	     75.64865578	     -7.98324920	      0.88397312	     73.62525748	      1.28500316	      7.83725294	     -8.40869733	     -7.49999917	    -24.55240006	      0.77411736	      0.24920955	     55.34707684	    -16.45013828	     33.89950750	    107.63077666	     92.76669550	     48.36484120	     -3.04236515	     25.14066950	    110.34410340	     75.57302168
      1.00416670	    -14.40734013	     -0.12853537	      2.04661016	      0.05004821	      0.67550661	     -0.07447488	     74.69930843	    -10.47354752	     -0.76833345	     80.13025571	      1.39853679	     20.15020055	      1.09529541	     -7.49999924	     77.12463510	     -7.86752937	      0.60116158	     75.95530734	      1.32567020	      9.15671099	     -7.36856849	     -7.49999924	    -24.34779827	      0.56135733	      0.27334393	     55.82380611	    -16.39466423	     33.18020863	    107.41114162	     90.96732213	     49.50063052	     -3.33017954	     24.90235279	    110.01251954	     75.00733990
      1.00833330	    -14.61382153	     -0.13960153	      2.43843828	      0.04953696	      0.66890263	     -0.07338656	     75.93714583	    -10.52268265	     -0.27306480	     81.80147924	      1.42770515	     21.50047336	      1.64217693	     -7.49999926	     78.47854546	     -7.91145574	      0.48879529	     77.83685964	      1.35850948	     10.21621230	     -6.40730251	     -7.49999926	    -24.34434383	      0.62330452	      0.24779299	     56.75840471	    -16.05523153	     32.56673121	    105.83536067	     90.92029382	     50.68868500	     -3.04500659	     24.36110047	    108.51662676	     74.64806976
      1.01250000	    -14.76820850	     -0.12543175	      2.68710487	      0.05043606	      0.66529932	     -0.07304783	     76.81776238	    -10.29068687	      0.20743945	     83.11399778	      1.45061292	     22.48888756	      1.88180264	     -7.49999929	     79.61546395	     -8.02113822	      0.39252489	     79.31981418	      1.38439192	     10.65118724	     -5.91232568	     -7.49999929	    -24.50235482	      0.61806215	      0.14369680	     57.12841883	    -15.49191135	     31.78410974	    104.15019146	     90.82876400	     51.55857788	     -2.80473827	     23.76269973	    107.89815498	     74.48352910
      1.01666670	    -15.06038265	     -0.09051726	      3.00640120	      0.05058196	      0.65868313	     -0.07297199	     77.80092195	    -10.05875077	      0.67521977	     84.56790539	      1.47598839	     23.10750160	      1.59988525	     -7.49999937	     80.67960868	     -7.98641591	      0.33491241	     80.37193000	      1.40275480	     11.02878028	     -5.64029498	     -7.49999937	    -24.46877606	      0.80433004	     -0.40624216	     57.96848010	    -14.63961275	     31.92635677	    102.00463550	     92.96125000	     52.21909432	     -2.80468039	     22.80439018	    107.57673031	     73.85042303
      1.02083330	    -15.20292168	     -0.14905968	      3.27131265	      0.05168254	      0.65825963	     -0.07331793	     78.09247800	     -9.86782520	      1.02170961	     84.92369117	      1.48219802	     23.51259141	      1.27771880	     -7.49999939	     81.05344772	     -7.84872751	      0.34273384	     80.65047612	      1.40761635	     11.01689318	     -5.74020553	     -7.49999939	    -24.65351607	      0.95586202	     -0.54260619	     58.54950353	    -14.19584122	     31.62487282	    100.42777729	     92.41852462	     52.83848284	     -2.26828328	     22.50348337	    105.94929755	     73.45504701
      1.02500000	    -15.65922177	     -0.10227990	      3.51089082	      0.05208268	      0.65483820	     -0.07380869	     78.72826084	     -9.89599879	      1.52943690	     85.28288164	      1.48846708	     23.79491280	      1.70805382	     -7.49999944	     81.68032828	     -7.70615896	      0.25258102	     80.83762260	      1.41088267	     11.01229610	     -5.56790906	     -7.49999944	    -24.38220892	      1.05028551	     -0.80524313	     58.98618345	    -14.06548012	     31.92223788	     99.18861425	     91.35582509	     53.12436851	     -1.77483616	     22.53536351	    104.60572891	     72.74921199
